<svg xmlns="http://www.w3.org/2000/svg" width="800" height="200" viewBox="0 0 800 200">
  <defs>
    <linearGradient id="textGradient" x1="0%" y1="0%" x2="100%" y2="0%">
      <stop offset="0%" style="stop-color:#FF0000;stop-opacity:1" />
      <stop offset="50%" style="stop-color:#FF9900;stop-opacity:1" />
      <stop offset="100%" style="stop-color:#FF00FF;stop-opacity:1" />
    </linearGradient>
  </defs>
  
  <style>
    .title { font: bold 50px Impact, sans-serif; fill: url(#textGradient); }
    .subtitle { font: bold 24px Arial, sans-serif; fill: url(#textGradient); }
    .social { font: bold 16px Arial, sans-serif; fill: url(#textGradient); }
    @keyframes typing {
      0%, 100% { clip-path: inset(0 100% 0 0); }
      50% { clip-path: inset(0 0 0 0); }
    }
  </style>

  <text x="400" y="80" text-anchor="middle" class="title" style="animation: typing 10s linear infinite;">
    ANSAR MUGHAL
  </text>

  <text x="400" y="130" text-anchor="middle" class="subtitle">
    Video Editor | Adobe Specialist
  </text>

  <!-- Twitter Icon and Username -->
  <g transform="translate(250, 160)">
    <path d="M23.643 4.937c-.835.37-1.732.62-2.675.733.962-.576 1.7-1.49 2.048-2.578-.9.534-1.897.922-2.958 1.13-.85-.904-2.06-1.47-3.4-1.47-2.572 0-4.658 2.086-4.658 4.66 0 .364.042.718.12 1.06-3.873-.195-7.304-2.05-9.602-4.868-.4.69-.63 1.49-.63 2.342 0 1.616.823 3.043 2.072 3.878-.764-.025-1.482-.234-2.11-.583v.06c0 2.257 1.605 4.14 3.737 4.568-.392.106-.803.162-1.227.162-.3 0-.593-.028-.877-.082.593 1.85 2.313 3.198 4.352 3.234-1.595 1.25-3.604 1.995-5.786 1.995-.376 0-.747-.022-1.112-.065 2.062 1.323 4.51 2.093 7.14 2.093 8.57 0 13.255-7.098 13.255-13.254 0-.2-.005-.402-.014-.602.91-.658 1.7-1.477 2.323-2.41z" fill="#1DA1F2"/>
    <text x="30" y="15" class="social">@AnsarMughal</text>
  </g>

  <!-- YouTube Icon and Username -->
  <g transform="translate(470, 160)">
    <path d="M23.498 6.186a3.016 3.016 0 0 0-2.122-2.136C19.505 3.545 12 3.545 12 3.545s-7.505 0-9.377.505A3.017 3.017 0 0 0 .502 6.186C0 8.07 0 12 0 12s0 3.93.502 5.814a3.016 3.016 0 0 0 2.122 2.136c1.871.505 9.376.505 9.376.505s7.505 0 9.377-.505a3.015 3.015 0 0 0 2.122-2.136C24 15.93 24 12 24 12s0-3.93-.502-5.814zM9.545 15.568V8.432L15.818 12l-6.273 3.568z" fill="#FF0000"/>
    <text x="30" y="15" class="social">@AnssTech</text>
  </g>
</svg>